<mxfile host="app.diagrams.net" modified="2020-03-30T08:53:04.399Z" agent="5.0 (Macintosh; Intel Mac OS X 10_15_4) AppleWebKit/537.36 (KHTML, like Gecko) Chrome/80.0.3987.149 Safari/537.36" etag="WUeiS8jodx3paaA1nCUg" version="12.9.4" type="github">
  <diagram id="C_CapZNrdbjN5ygWCtcE" name="Page-1">
    <mxGraphModel dx="1773" dy="548" grid="1" gridSize="10" guides="1" tooltips="1" connect="1" arrows="1" fold="1" page="1" pageScale="1" pageWidth="827" pageHeight="1169" math="0" shadow="0">
      <root>
        <mxCell id="0" />
        <mxCell id="1" parent="0" />
        <mxCell id="_Ngr6iUIybiltjpxE6eu-2" value="&lt;font style=&quot;vertical-align: inherit&quot;&gt;&lt;font style=&quot;vertical-align: inherit&quot;&gt;idRéal &lt;/font&gt;&lt;/font&gt;&lt;br&gt;&lt;font style=&quot;vertical-align: inherit&quot;&gt;&lt;font style=&quot;vertical-align: inherit&quot;&gt;NomRéal &lt;/font&gt;&lt;/font&gt;&lt;br&gt;&lt;font style=&quot;vertical-align: inherit&quot;&gt;&lt;font style=&quot;vertical-align: inherit&quot;&gt;PrénomRéal &lt;/font&gt;&lt;/font&gt;&lt;br&gt;&lt;font style=&quot;vertical-align: inherit&quot;&gt;&lt;font style=&quot;vertical-align: inherit&quot;&gt;DateNaissanceRéal&lt;/font&gt;&lt;/font&gt;" style="rounded=0;whiteSpace=wrap;html=1;direction=south;" parent="1" vertex="1">
          <mxGeometry x="-10" y="45" width="190" height="275" as="geometry" />
        </mxCell>
        <mxCell id="_Ngr6iUIybiltjpxE6eu-3" value="" style="rounded=0;whiteSpace=wrap;html=1;" parent="1" vertex="1">
          <mxGeometry x="480" y="40" width="170" height="280" as="geometry" />
        </mxCell>
        <mxCell id="_Ngr6iUIybiltjpxE6eu-5" value="" style="endArrow=none;html=1;exitX=0.476;exitY=-0.005;exitDx=0;exitDy=0;entryX=0;entryY=0.5;entryDx=0;entryDy=0;exitPerimeter=0;" parent="1" source="_Ngr6iUIybiltjpxE6eu-2" target="_Ngr6iUIybiltjpxE6eu-3" edge="1">
          <mxGeometry width="50" height="50" relative="1" as="geometry">
            <mxPoint x="390" y="310" as="sourcePoint" />
            <mxPoint x="440" y="260" as="targetPoint" />
          </mxGeometry>
        </mxCell>
        <mxCell id="_Ngr6iUIybiltjpxE6eu-6" value="&lt;font style=&quot;vertical-align: inherit&quot;&gt;&lt;font style=&quot;vertical-align: inherit&quot;&gt;(1,n)&lt;/font&gt;&lt;/font&gt;" style="text;html=1;strokeColor=none;fillColor=none;align=center;verticalAlign=middle;whiteSpace=wrap;rounded=0;" parent="1" vertex="1">
          <mxGeometry x="190" y="140" width="40" height="20" as="geometry" />
        </mxCell>
        <mxCell id="_Ngr6iUIybiltjpxE6eu-7" value="(0,n)" style="text;html=1;strokeColor=none;fillColor=none;align=center;verticalAlign=middle;whiteSpace=wrap;rounded=0;" parent="1" vertex="1">
          <mxGeometry x="430" y="190" width="40" height="20" as="geometry" />
        </mxCell>
        <mxCell id="_Ngr6iUIybiltjpxE6eu-8" value="Réalise" style="ellipse;whiteSpace=wrap;html=1;" parent="1" vertex="1">
          <mxGeometry x="260" y="135" width="120" height="80" as="geometry" />
        </mxCell>
        <mxCell id="_Ngr6iUIybiltjpxE6eu-9" value="&lt;font style=&quot;vertical-align: inherit&quot;&gt;&lt;font style=&quot;vertical-align: inherit&quot;&gt;Réalisateur&lt;/font&gt;&lt;/font&gt;" style="text;html=1;strokeColor=none;fillColor=none;align=center;verticalAlign=middle;whiteSpace=wrap;rounded=0;" parent="1" vertex="1">
          <mxGeometry x="65" y="130" width="40" height="20" as="geometry" />
        </mxCell>
        <mxCell id="_Ngr6iUIybiltjpxE6eu-17" value="SérieTV" style="text;html=1;strokeColor=none;fillColor=none;align=center;verticalAlign=middle;whiteSpace=wrap;rounded=0;" parent="1" vertex="1">
          <mxGeometry x="540" y="80" width="40" height="20" as="geometry" />
        </mxCell>
        <mxCell id="_Ngr6iUIybiltjpxE6eu-20" value="&lt;font style=&quot;vertical-align: inherit&quot;&gt;&lt;font style=&quot;vertical-align: inherit&quot;&gt;idSerie &lt;/font&gt;&lt;/font&gt;&lt;br&gt;&lt;font style=&quot;vertical-align: inherit&quot;&gt;&lt;font style=&quot;vertical-align: inherit&quot;&gt;TitreSerie &lt;/font&gt;&lt;/font&gt;&lt;br&gt;&lt;font style=&quot;vertical-align: inherit&quot;&gt;&lt;font style=&quot;vertical-align: inherit&quot;&gt;AnnéeSerie &lt;/font&gt;&lt;/font&gt;&lt;br&gt;&lt;font style=&quot;vertical-align: inherit&quot;&gt;&lt;font style=&quot;vertical-align: inherit&quot;&gt;genreSerie&lt;/font&gt;&lt;/font&gt;" style="text;html=1;strokeColor=none;fillColor=none;align=center;verticalAlign=middle;whiteSpace=wrap;rounded=0;" parent="1" vertex="1">
          <mxGeometry x="540" y="135" width="40" height="20" as="geometry" />
        </mxCell>
        <mxCell id="Vug4zkTSl9vKvAIuFJrY-1" value="&lt;font style=&quot;vertical-align: inherit&quot;&gt;&lt;font style=&quot;vertical-align: inherit&quot;&gt;idProduc&amp;nbsp;&lt;/font&gt;&lt;/font&gt;&lt;br&gt;&lt;font style=&quot;vertical-align: inherit&quot;&gt;&lt;font style=&quot;vertical-align: inherit&quot;&gt;NomProd&lt;br&gt;&lt;/font&gt;&lt;/font&gt;PrixProd&lt;br&gt;&lt;font style=&quot;vertical-align: inherit&quot;&gt;&lt;font style=&quot;vertical-align: inherit&quot;&gt;DescProd&lt;br&gt;DateAjoutProd&lt;br&gt;DateModifProd&lt;br&gt;StatutProd&lt;br&gt;&lt;/font&gt;&lt;/font&gt;" style="rounded=0;whiteSpace=wrap;html=1;direction=south;" vertex="1" parent="1">
          <mxGeometry x="-20" y="390" width="190" height="275" as="geometry" />
        </mxCell>
        <mxCell id="Vug4zkTSl9vKvAIuFJrY-2" value="Product" style="text;html=1;strokeColor=none;fillColor=none;align=center;verticalAlign=middle;whiteSpace=wrap;rounded=0;" vertex="1" parent="1">
          <mxGeometry x="55" y="450" width="40" height="20" as="geometry" />
        </mxCell>
        <mxCell id="Vug4zkTSl9vKvAIuFJrY-4" value="" style="rounded=0;whiteSpace=wrap;html=1;" vertex="1" parent="1">
          <mxGeometry x="510" y="390" width="170" height="280" as="geometry" />
        </mxCell>
        <mxCell id="Vug4zkTSl9vKvAIuFJrY-5" value="Categories" style="text;html=1;strokeColor=none;fillColor=none;align=center;verticalAlign=middle;whiteSpace=wrap;rounded=0;" vertex="1" parent="1">
          <mxGeometry x="545" y="430" width="40" height="20" as="geometry" />
        </mxCell>
        <mxCell id="Vug4zkTSl9vKvAIuFJrY-8" value="idCat&lt;br&gt;NomCat&lt;br&gt;DescCat&lt;br&gt;DateAjoutCat&lt;br&gt;DateModifCat&lt;br&gt;StatutCat" style="text;html=1;strokeColor=none;fillColor=none;align=center;verticalAlign=middle;whiteSpace=wrap;rounded=0;" vertex="1" parent="1">
          <mxGeometry x="560" y="500" width="40" height="10" as="geometry" />
        </mxCell>
        <mxCell id="Vug4zkTSl9vKvAIuFJrY-11" value="(1,n)" style="text;html=1;strokeColor=none;fillColor=none;align=center;verticalAlign=middle;whiteSpace=wrap;rounded=0;" vertex="1" parent="1">
          <mxGeometry x="460" y="565" width="40" height="20" as="geometry" />
        </mxCell>
        <mxCell id="Vug4zkTSl9vKvAIuFJrY-12" value="(1,1)" style="text;html=1;align=center;verticalAlign=middle;resizable=0;points=[];autosize=1;" vertex="1" parent="1">
          <mxGeometry x="180" y="610" width="40" height="20" as="geometry" />
        </mxCell>
        <mxCell id="Vug4zkTSl9vKvAIuFJrY-25" value="" style="endArrow=none;html=1;exitX=0.75;exitY=0;exitDx=0;exitDy=0;entryX=0;entryY=0.75;entryDx=0;entryDy=0;" edge="1" parent="1" source="Vug4zkTSl9vKvAIuFJrY-1" target="Vug4zkTSl9vKvAIuFJrY-4">
          <mxGeometry width="50" height="50" relative="1" as="geometry">
            <mxPoint x="310" y="610" as="sourcePoint" />
            <mxPoint x="360" y="560" as="targetPoint" />
          </mxGeometry>
        </mxCell>
      </root>
    </mxGraphModel>
  </diagram>
</mxfile>
